<?xml version="1.0" encoding="utf-8"?>
<!-- Generator: Adobe Illustrator 16.0.0, SVG Export Plug-In . SVG Version: 6.00 Build 0)  -->
<!DOCTYPE svg PUBLIC "-//W3C//DTD SVG 1.1//EN" "http://www.w3.org/Graphics/SVG/1.1/DTD/svg11.dtd">
<svg version="1.1" id="Layer_1" xmlns="http://www.w3.org/2000/svg" xmlns:xlink="http://www.w3.org/1999/xlink" x="0px" y="0px"
	 width="100px" height="100px" viewBox="0 0 100 100" enable-background="new 0 0 100 100" xml:space="preserve">
<g>
	<defs>
		<rect id="SVGID_1_" x="20.23" y="4.75" width="59.54" height="90.5"/>
	</defs>
	<clipPath id="SVGID_2_">
		<use xlink:href="#SVGID_1_"  overflow="visible"/>
	</clipPath>
	<path clip-path="url(#SVGID_2_)" fill="#231F20" d="M62.496,95.25H37.495c-4.831-10.688-8.992-21.024-14.129-30.852
		c-3.251-6.217-3.564-12.331-2.768-18.9c0.417-3.44,1.816-5.495,5.612-4.843c3.469,0.595,4.999,2.623,4.454,6.172
		c-0.264,1.72-0.564,3.459-0.575,5.19c-0.03,4.448,3.759,8.214,8.07,8.037c4.343-0.181,8.681-0.494,12.847-0.74
		c2.822-5.305,2.061-10.082-2.045-13.602c-3.463-2.966-7.815-3.938-12.517-2.004c-3.529,1.451-5.397-0.925-6.588-3.852
		c-1.276-3.138,0.97-4.071,3.262-4.951c10.393-3.993,18.64-1.782,25.815,6.908c2.947,3.567,5.939,7.1,9.691,10.083
		c-1.631-2.146-3.037-4.519-4.936-6.396c-5.063-5.007-7.711-10.957-8.557-18.013c-0.586-4.873-2.391-9.61-2.842-14.482
		c-0.201-2.181,1.014-5.11,2.594-6.698c2.74-2.755,5.076-1.747,5.912,2.146c3.412,15.874,6.955,31.725,9.961,47.679
		c0.746,3.954,0.244,8.396-0.713,12.368C67.912,77.359,65.131,86.063,62.496,95.25"/>
	<path clip-path="url(#SVGID_2_)" fill="#231F20" d="M68.162,38.207c-1.012-6.853-2.131-13.69-2.961-20.564
		c-0.213-1.771-0.139-4.27,0.912-5.329c1.367-1.373,3.848-2.159,5.844-2.148c0.867,0.006,2.668,2.814,2.428,4.027
		c-1.6,8.058-3.639,16.026-5.535,24.023C68.621,38.213,68.391,38.211,68.162,38.207"/>
	<path clip-path="url(#SVGID_2_)" fill="#231F20" d="M69.564,43.104c1.41-6.396,2.65-12.838,4.424-19.13
		c0.256-0.907,3.078-1.091,4.713-1.607c0.361,1.222,1.369,2.725,0.98,3.621c-2.584,5.953-5.467,11.777-8.252,17.643
		C70.807,43.455,70.186,43.278,69.564,43.104"/>
</g>
</svg>
